# xmcd
#
# Track frame offsets: 
#        150
#        19110
#        33735
#        57520
#        71072
#        86590
#        110465
#        139722
#        158577
#
# Disc length: 2310 seconds
#
# Revision: 3
# Processed by: cddbd v1.5.2PL0 Copyright (c) Steve Scherf et al.
# Submitted via: ExactAudioCopy v0.90b4
#
DISCID=77090409
DTITLE=Melvin Taylor - Plays The Blues For You
DYEAR=1993
DGENRE=Blues
TTITLE0=Talking To Anna Mae, Part 1
TTITLE1=T.V. Mama
TTITLE2=I'll Play The Blues For You
TTITLE3=Born To Lose
TTITLE4=Tribute To Wes
TTITLE5=Cadillac Assembly Line
TTITLE6=Voodoo Daddy
TTITLE7=Talking To Anna Mae, Part 2
TTITLE8=Groovin' In Paris
EXTD=
EXTT0=
EXTT1=
EXTT2=
EXTT3=
EXTT4=
EXTT5=
EXTT6=
EXTT7=
EXTT8=
PLAYORDER=
